<?xml version="1.0" encoding="utf-8"?>
<svg version="1.0" width="280.000000pt" height="280.000000pt" viewBox="0 0 280.000000 280.000000"
     preserveAspectRatio="xMidYMid meet" xmlns="http://www.w3.org/2000/svg">
    <g transform="translate(0.000000,280.000000) scale(0.100000,-0.100000)" fill="#000000" stroke="none">
        <path
            d="M485 2785 c-128 -24 -226 -74 -311 -159 -124 -124 -190 -320 -164 -482 13 -78 46 -181 65 -204 7 -8 20 -28 28 -45 15 -28 61 -79 120 -133 33 -30 143 -85 200 -102 l46 -12 3 -472 3 -471 37 -75 c54 -108 143 -198 236 -237 20 -9 73 -23 116 -32 l79 -16 13 -52 c47 -184 259 -318 446 -282 96 18 162 52 224 113 91 92 136 229 113 348 -40 214 -215 351 -424 335 -38 -3 -89 -11 -111 -18 -56 -18 -139 -83 -190 -149 -41 -54 -47 -67 -62 -140 l-8 -35 -53 3 c-109 7 -224 90 -279 202 l-27 55 -3 338 c-2 185 0 337 3 337 3 0 29 -17 58 -38 68 -49 114 -64 217 -71 l85 -6 7 -35 c14 -72 21 -86 62 -140 51 -66 134 -131 190 -149 112 -35 260 -21 347 34 89 57 167 166 183 258 l7 38 127 -3 127 -3 7 -35 c15 -72 21 -86 62 -140 51 -66 134 -131 190 -149 22 -7 73 -15 111 -18 209 -16 384 121 424 335 23 119 -22 256 -113 348 -62 61 -128 95 -224 113 -187 36 -399 -98 -446 -282 l-13 -52 -126 -3 -126 -3 -7 28 c-45 208 -254 351 -456 312 -158 -30 -286 -142 -322 -282 l-14 -52 -78 1 c-92 1 -148 24 -202 83 -39 41 -72 101 -72 129 0 16 10 20 63 26 129 14 234 65 331 160 126 123 171 232 171 416 0 122 -7 153 -57 257 -41 86 -129 187 -193 220 -16 8 -37 21 -45 28 -33 28 -223 77 -286 74 -10 0 -50 -7 -89 -14z m172 -104 c72 -11 176 -58 228 -104 62 -54 112 -128 146 -217 19 -48 18 -232 0 -290 -32 -97 -100 -185 -189 -243 -91 -59 -137 -72 -262 -72 -127 0 -179 16 -275 86 -136 100 -205 256 -188 429 19 196 197 385 388 410 74 10 84 10 152 1z m823 -1079 c58 -34 89 -65 124 -126 25 -43 29 -60 29 -130 0 -68 -4 -89 -25 -131 -70 -136 -215 -196 -364 -149 -82 25 -153 96 -178 178 -45 144 13 294 138 359 86 44 198 43 276 -1z m1050 0 c58 -34 89 -65 124 -126 25 -43 29 -60 29 -130 0 -68 -4 -89 -25 -131 -70 -136 -215 -196 -364 -149 -82 25 -153 96 -178 178 -45 144 13 294 138 359 86 44 198 43 276 -1z m-1055 -930 c54 -27 102 -76 133 -137 21 -42 25 -63 25 -131 0 -70 -4 -87 -29 -130 -36 -62 -66 -92 -128 -128 -43 -25 -60 -29 -130 -29 -68 0 -89 4 -131 25 -136 70 -196 215 -149 364 23 76 96 152 169 177 65 22 183 17 240 -11z"
            style="fill: rgb(131, 132, 130);"/>
        <path
            d="M435 2507 c-76 -25 -85 -55 -85 -285 0 -247 13 -288 98 -299 36 -5 106 17 122 37 3 4 28 20 55 36 28 16 71 42 96 59 25 16 64 41 87 55 50 30 67 60 66 112 -2 44 -26 76 -84 110 -38 22 -128 80 -172 109 -92 63 -141 80 -183 66z m67 -120 c7 -7 35 -26 62 -42 27 -17 65 -40 85 -53 20 -12 45 -27 56 -32 29 -13 55 -36 55 -46 0 -8 -74 -57 -140 -92 -14 -7 -32 -19 -40 -26 -18 -15 -106 -66 -114 -66 -3 0 -6 83 -6 185 0 154 2 185 14 185 8 0 21 -6 28 -13z"
            style="fill: rgba(0, 0, 0, 0.57);"/>
        <path
            d="M1362 1402 l-81 -79 -28 29 c-43 45 -113 33 -113 -21 0 -26 115 -141 141 -141 23 0 225 193 232 221 6 24 -29 69 -52 69 -10 0 -55 -35 -99 -78z"
            style=""/>
        <path
            d="M2412 1402 l-81 -79 -28 29 c-43 45 -113 33 -113 -21 0 -26 115 -141 141 -141 23 0 225 193 232 221 6 24 -29 69 -52 69 -10 0 -55 -35 -99 -78z"
            style="fill: rgba(0, 0, 0, 0.51);"/>
    </g>
</svg>