<svg fill="none" height="24" viewBox="0 0 24 24" width="24" xmlns="http://www.w3.org/2000/svg"><path clip-rule="evenodd" d="m10.1828 3.72141c1.8277-.40154 3.7368-.18873 5.4312.60542 1.6292.7636 2.9724 2.02366 3.8385 3.5966l-2.7035-.47671c-.272-.04795-.5313.13364-.5793.40558-.0479.27195.1337.53128.4056.57923l3.9392.69459c.272.04796.5313-.13363.5793-.40558l.6946-3.93923c.0479-.27194-.1337-.53127-.4056-.57923-.272-.04795-.5313.13364-.5792.40558l-.4937 2.79978c-.9686-1.74232-2.4622-3.1381-4.2715-3.98609-1.8938-.88758-4.0275-1.12542-6.0702-.67665-2.04271.44878-3.88024 1.5591-5.22756 3.15873s-2.12912 3.59916-2.22412 5.68847c-.01255.2758.20091.5096.47677.5222.27585.0125.50965-.201.52219-.4768.00215-.0471.00468-.0942.0076-.1412.00676-.0263.01122-.0536.01315-.0815.00187-.0271.00129-.054-.00155-.0802.14305-1.75917.83059-3.43302 1.97081-4.78676 1.2055-1.43125 2.8496-2.42469 4.67731-2.82623zm-7.41132 10.46669c.03416.1443.07172.2879.11268.4307s.08522.2845.13273.425c.08847.2616.38058.3864.63714.2843.25657-.1021.38028-.3925.29343-.6546-.03622-.1093-.07025-.2195-.10205-.3304s-.06132-.2223-.08853-.3342c-.06527-.2683-.32408-.449-.59577-.3996s-.45323.3101-.38963.5788zm17.89002 1.7497c.1144-.2513-.0132-.5422-.2701-.6433-.257-.1011-.5459.026-.6619.2766-.0484.1045-.099.2081-.1517.3107-.0526.1026-.1074.2041-.1641.3043-.136.2403-.0709.5492.1611.6991.2319.1499.5426.084.6801-.1555.0738-.1286.1447-.259.2126-.3912.0678-.1322.1325-.2658.194-.4007zm-16.31934 1.6622c.08741.1198.17769.2377.27081.3534.09311.1158.18883.2293.28706.3404.18295.2068.50061.2087.69754.0151.19694-.1936.19843-.5092.01677-.7172-.07575-.0867-.1498-.175-.2221-.2649s-.14269-.1812-.21114-.2738c-.16417-.2221-.47277-.2883-.70409-.1375-.23131.1508-.29763.4615-.13485.6845zm14.11734 1.3808c.2029-.1873.198-.5049.0003-.6977s-.5133-.1876-.7174-.0016c-.0851.0776-.1718.1535-.2602.2277-.0883.0742-.1781.1465-.2692.2169-.2185.1688-.2782.4788-.1225.7068.1557.2281.4677.2878.6873.1203.1179-.0899.2337-.1827.3475-.2782.1138-.0956.2252-.1937.3342-.2942zm-11.34702 1.1558c.12699.0765.25589.1501.38661.2208.13071.0706.26292.1381.39652.2024.24882.1198.54237-.0016.64889-.2564.10651-.2547-.01444-.5463-.26251-.6676-.10345-.0506-.20595-.1033-.30743-.1582-.10149-.0548-.20176-.1117-.30075-.1705-.23739-.1411-.54755-.0825-.70233.1462-.15478.2286-.09551.5407.141.6833zm8.13772.7959c.2596-.094.3783-.3887.2707-.6431-.1075-.2543-.4005-.3718-.6607-.2794-.1085.0385-.2179.0748-.3281.109-.1102.0341-.2209.066-.3322.0956-.2669.0709-.4421.3335-.3869.6041.0551.2706.3196.4466.5869.3773.1435-.0372.2863-.0778.4282-.1218.142-.044.2827-.0913.4221-.1417zm-4.6008.4686c.1467.0213.2941.0392.4419.0537.1479.0145.2959.0254.444.0329.2758.014.4994-.2117.4988-.4878-.0005-.2761-.225-.498-.5007-.5137-.115-.0065-.2299-.0154-.3447-.0266-.1148-.0113-.2293-.0248-.3434-.0407-.2735-.038-.5367.1361-.5908.407-.054.2708.1216.5355.3949.5752zm1.2952-12.90109v3.49999h3.5009c.2762 0 .5.2239.5.5 0 .2762-.2238.5-.5.5h-4.5009v-4.49999c0-.27614.2238-.5.5-.5.2761 0 .5.22386.5.5z" fill="#f19e0c" fill-rule="evenodd"/></svg>