<?xml version="1.0" encoding="utf-8"?>
<svg id="master-artboard" viewBox="0 0 16 16" version="1.1" xmlns="http://www.w3.org/2000/svg" x="0px" y="0px" style="enable-background:new 0 0 1400 980;" width="16px" height="16px"><g transform="matrix(0.9999997615814209, 0, 0, 0.999999761581421, 2.0000083446502686, 0.0000022394148970761307)"><rect id="ee-background" x="0" y="0" width="16" height="16" style="fill: white; fill-opacity: 0; pointer-events: none;"/><path fill-rule="evenodd" d="M6 8h2v1H5V5h1v3zm6 0c0 2.22-1.2 4.16-3 5.19V15c0 .55-.45 1-1 1H4c-.55 0-1-.45-1-1v-1.81C1.2 12.16 0 10.22 0 8s1.2-4.16 3-5.19V1c0-.55.45-1 1-1h4c.55 0 1 .45 1 1v1.81c1.8 1.03 3 2.97 3 5.19zm-1 0c0-2.77-2.23-5-5-5S1 5.23 1 8s2.23 5 5 5 5-2.23 5-5z" style="fill: rgb(219, 171, 9);"/></g></svg>